<?xml version="1.0" standalone="no"?>
<!DOCTYPE svg PUBLIC "-//W3C//DTD SVG 20010904//EN"
 "http://www.w3.org/TR/2001/REC-SVG-20010904/DTD/svg10.dtd">
<svg version="1.0" xmlns="http://www.w3.org/2000/svg"
 width="128.000000pt" height="128.000000pt" viewBox="0 0 128.000000 128.000000"
 preserveAspectRatio="xMidYMid meet">
<metadata>
Created by potrace 1.14, written by Peter Selinger 2001-2017
</metadata>
<g transform="translate(0.000000,128.000000) scale(0.100000,-0.100000)"
fill="#000000" stroke="none">
<path d="M471 1023 c-52 -30 -81 -91 -81 -166 0 -68 11 -100 46 -132 33 -31
21 -32 -37 -3 -36 18 -61 22 -141 23 -53 0 -94 -3 -92 -7 3 -5 13 -8 22 -8 10
-1 3 -7 -14 -14 -26 -12 -31 -19 -29 -45 1 -17 -3 -31 -9 -31 -6 0 -2 -7 9
-16 16 -12 17 -17 6 -23 -13 -8 0 -12 84 -27 28 -5 107 11 240 49 28 8 52 13
54 11 3 -3 -10 -25 -27 -49 -33 -47 -43 -75 -46 -128 -2 -32 -2 -32 -50 -29
-37 3 -52 -1 -69 -16 -14 -13 -39 -22 -67 -24 l-45 -3 -12 -80 c-7 -44 -19
-131 -26 -193 -13 -105 -13 -112 4 -112 9 0 20 6 22 13 4 9 6 9 6 0 1 -7 8
-13 16 -13 10 0 15 11 16 33 0 17 6 50 14 72 l13 40 -1 -45 c0 -25 1 -57 2
-72 l1 -28 270 0 c268 0 271 0 260 20 -9 16 -21 20 -67 20 -50 0 -55 2 -50 20
4 15 0 20 -15 20 -16 0 -18 -3 -10 -13 8 -10 6 -13 -9 -14 -10 -1 -19 2 -19 6
0 5 -14 11 -30 13 -24 4 -29 1 -25 -11 2 -9 0 -22 -4 -30 -8 -12 -12 -12 -25
-2 -19 16 -21 47 -3 55 6 3 -3 3 -22 0 -23 -4 -31 -3 -27 5 4 6 14 11 22 11 8
0 13 4 10 9 -7 11 27 21 72 21 17 0 32 3 32 8 0 10 362 9 377 -1 14 -9 47 47
39 66 -2 7 -5 6 -5 -4 -1 -12 -14 -16 -58 -17 -32 0 -134 -3 -228 -5 -93 -3
-159 -1 -145 3 21 7 18 8 -20 10 -25 1 -40 4 -33 6 7 3 10 11 7 19 -7 18 16
31 26 15 6 -10 16 -11 42 -3 18 6 25 11 16 12 -10 1 -18 8 -18 16 0 19 -29 19
-49 1 -9 -8 -29 -18 -46 -21 -29 -7 -29 -7 -10 10 11 9 14 14 8 10 -7 -3 -13
-1 -13 5 0 17 -33 -5 -36 -24 -2 -12 6 -16 33 -16 31 0 33 -2 19 -15 -8 -8
-21 -12 -29 -9 -8 3 -21 -1 -28 -9 -10 -10 -22 -12 -44 -6 -16 5 -42 9 -57 9
-18 0 -29 7 -33 19 -9 28 -44 37 -64 16 -15 -15 -14 -16 13 -13 16 2 31 -2 33
-9 3 -8 -8 -10 -36 -6 -26 4 -46 1 -56 -7 -13 -11 -15 -8 -15 14 0 15 4 25 8
22 5 -3 9 1 9 9 0 8 -4 12 -8 10 -12 -8 3 79 15 87 7 5 6 8 -4 8 -12 0 -13 2
-1 9 11 7 11 9 0 14 -8 3 -5 6 8 6 12 1 29 -7 39 -16 11 -11 19 -14 21 -7 2 6
16 9 31 7 23 -3 24 -2 7 6 -17 8 -15 9 12 8 l33 -2 -23 -17 c-19 -15 -20 -19
-7 -28 17 -11 41 -14 24 -2 -6 4 -4 13 8 24 10 10 18 13 18 8 0 -6 5 -10 11
-10 6 0 9 7 5 15 -3 8 -1 15 4 15 6 0 10 -4 10 -10 0 -5 14 -7 32 -5 41 5 51
-2 37 -26 -6 -12 -8 -23 -6 -26 7 -7 47 29 42 38 -6 9 54 34 62 25 3 -3 -1 -6
-10 -6 -17 0 -47 -26 -47 -41 0 -6 6 -7 13 -2 6 4 24 8 39 8 15 0 31 5 35 9 4
5 3 6 -3 3 -6 -3 -11 1 -11 10 0 12 5 10 20 -8 10 -13 20 -24 21 -23 0 0 11 6
24 13 12 7 21 19 20 28 -2 9 3 17 10 19 7 1 8 0 2 -3 -5 -2 -7 -9 -4 -14 3 -6
-2 -19 -11 -29 -11 -12 -13 -20 -6 -25 6 -3 11 1 11 10 0 8 7 18 15 21 8 4 12
10 9 15 -3 5 3 9 13 9 15 0 16 2 3 11 -12 9 -12 10 3 5 10 -3 24 -6 30 -7 7 0
1 -5 -12 -10 -13 -5 -21 -12 -18 -15 7 -8 47 14 47 26 0 6 14 10 30 10 17 0
30 -4 30 -10 0 -5 5 -10 11 -10 5 0 8 4 4 9 -6 11 62 22 109 18 28 -2 31 -6
48 -72 18 -69 25 -123 33 -240 2 -39 1 -53 -5 -40 -8 18 -9 17 -9 -7 -1 -25 3
-28 29 -28 22 0 30 5 30 18 0 16 -27 175 -50 297 -20 103 -12 99 -165 93
l-133 -5 -4 76 c-3 42 -13 95 -23 118 -17 36 -24 42 -59 47 -27 5 -42 3 -47
-6 -12 -19 -22 -3 -14 22 8 27 48 42 89 35 40 -8 72 5 119 47 36 33 45 55 29
74 -5 5 -14 28 -20 51 -15 50 -62 93 -102 93 -23 0 -30 5 -35 29 -10 46 -29
55 -116 57 -66 1 -85 -3 -118 -23z m60 -35 c-10 -23 -29 -44 -51 -55 -58 -31
-78 -131 -28 -141 20 -4 68 36 68 58 0 17 26 47 34 39 3 -2 1 -23 -4 -47 -8
-48 4 -122 23 -134 8 -5 7 -8 -5 -8 -9 0 -20 5 -23 10 -3 6 -17 10 -31 10 -37
0 -78 25 -92 55 -17 37 -15 131 4 172 18 37 76 82 104 80 16 -1 16 -4 1 -39z
m258 -64 c35 -29 51 -85 31 -109 -7 -8 -10 -26 -8 -40 3 -15 -2 -32 -14 -45
-20 -21 -32 -24 -88 -21 -20 1 -48 -3 -65 -9 -42 -16 -76 20 -82 87 -6 65 9
101 43 105 15 2 32 12 38 23 16 30 27 35 73 35 30 0 50 -7 72 -26z m-609 -228
c0 -3 -4 -8 -10 -11 -5 -3 -10 -1 -10 4 0 6 5 11 10 11 6 0 10 -2 10 -4z m85
-38 c43 1 54 -1 40 -8 -38 -17 -145 -8 -145 12 0 6 9 7 23 3 12 -5 49 -8 82
-7z m409 -27 c3 -5 15 -7 26 -4 12 3 20 0 20 -7 0 -7 -6 -10 -14 -7 -8 3 -20
-1 -26 -9 -10 -11 -9 -14 4 -14 9 0 16 -4 16 -10 0 -5 -8 -10 -17 -10 -15 0
-15 -1 2 -13 25 -19 11 -41 -16 -26 -28 14 -35 5 -20 -27 l12 -27 24 23 c28
26 47 21 21 -5 -20 -21 -21 -32 -1 -15 12 10 15 10 15 -3 0 -8 -7 -17 -15 -21
-11 -4 -14 -13 -9 -31 8 -31 -2 -75 -17 -75 -6 0 -19 10 -29 22 -16 20 -21 21
-57 10 -62 -18 -90 -15 -108 12 -13 20 -14 29 -5 47 7 12 10 37 7 56 -5 28 0
44 26 84 34 52 41 55 84 37 l28 -11 -30 -7 c-27 -7 -26 -8 14 -9 36 -1 42 2
37 15 -10 26 14 48 28 25z m56 -41 c0 -5 -4 -10 -10 -10 -5 0 -10 5 -10 10 0
6 5 10 10 10 6 0 10 -4 10 -10z m8 -38 c3 -9 -2 -13 -14 -10 -9 1 -19 9 -22
16 -3 9 2 13 14 10 9 -1 19 -9 22 -16z m22 -61 c0 -91 -28 -133 -50 -75 -12
32 -13 44 -1 25 7 -11 11 -4 16 25 9 54 13 64 25 64 5 0 10 -17 10 -39z m-317
-87 c46 -11 32 -27 -15 -19 -24 5 -56 8 -73 7 l-30 -1 25 14 c14 8 34 13 45
10 11 -3 32 -8 48 -11z m172 -64 c-3 -5 -11 -10 -16 -10 -6 0 -7 5 -4 10 3 6
11 10 16 10 6 0 7 -4 4 -10z m-351 -175 c-4 -8 -14 -15 -23 -15 -14 1 -13 3 3
15 25 19 27 19 20 0z m359 -22 c-7 -2 -19 -2 -25 0 -7 3 -2 5 12 5 14 0 19 -2
13 -5z m-135 -14 c-5 -3 -9 -10 -9 -15 1 -5 -22 -10 -51 -10 l-53 -2 45 8 c39
6 41 7 13 8 -18 1 -33 6 -33 11 0 5 22 8 49 8 27 -1 45 -5 39 -8z m-115 -6
c-7 -2 -19 -2 -25 0 -7 3 -2 5 12 5 14 0 19 -2 13 -5z m-43 -13 c8 -5 11 -10
5 -10 -5 0 -17 5 -25 10 -8 5 -10 10 -5 10 6 0 17 -5 25 -10z m-113 -52 c-3
-7 -5 -2 -5 12 0 14 2 19 5 13 2 -7 2 -19 0 -25z"/>
<path d="M593 533 c9 -2 23 -2 30 0 6 3 -1 5 -18 5 -16 0 -22 -2 -12 -5z"/>
<path d="M651 462 c0 -7 -6 -10 -12 -7 -15 10 -59 -3 -59 -17 0 -9 3 -9 12 0
16 16 45 15 51 0 7 -20 19 -2 14 19 -3 10 -5 12 -6 5z"/>
<path d="M458 332 c-19 -11 -19 -12 -3 -7 11 4 28 8 39 11 27 5 32 13 7 11
-11 -1 -31 -7 -43 -15z"/>
<path d="M838 343 c6 -2 18 -2 25 0 6 3 1 5 -13 5 -14 0 -19 -2 -12 -5z"/>
<path d="M413 233 c-13 -2 -23 -9 -23 -15 0 -5 7 -7 16 -4 9 3 25 6 35 6 11 0
17 5 14 10 -3 6 -9 9 -13 9 -4 -1 -17 -4 -29 -6z"/>
<path d="M858 123 c7 -3 16 -2 19 1 4 3 -2 6 -13 5 -11 0 -14 -3 -6 -6z"/>
<path d="M957 116 c-4 -10 -1 -13 9 -9 15 6 19 23 5 23 -5 0 -11 -7 -14 -14z"/>
<path d="M560 111 c0 -10 60 -24 68 -16 3 3 0 5 -7 5 -7 0 -9 5 -6 10 4 6 -7
10 -24 10 -17 0 -31 -4 -31 -9z"/>
<path d="M895 110 c-3 -5 3 -10 15 -10 12 0 18 5 15 10 -3 6 -10 10 -15 10 -5
0 -12 -4 -15 -10z"/>
<path d="M1041 74 c0 -11 3 -14 6 -6 3 7 2 16 -1 19 -3 4 -6 -2 -5 -13z"/>
<path d="M923 48 c-23 -32 -9 -43 60 -46 64 -3 67 -2 67 19 0 22 0 22 -15 3
-13 -18 -14 -18 -15 -1 0 10 -4 15 -10 12 -5 -3 -20 1 -32 9 -27 19 -42 20
-55 4z"/>
<path d="M859 38 c-7 -24 -5 -38 7 -38 8 0 14 9 14 20 0 11 -4 20 -10 20 -5 0
-10 -1 -11 -2z"/>
</g>
</svg>
